<svg xmlns="http://www.w3.org/2000/svg" viewBox="0 0 64 64" role="img" aria-label="AI ShortLink">
  <defs>
    <linearGradient id="g" x1="10" y1="8" x2="56" y2="58" gradientUnits="userSpaceOnUse">
      <stop stop-color="#7C3AED"/>
      <stop offset="0.55" stop-color="#2563EB"/>
      <stop offset="1" stop-color="#06B6D4"/>
    </linearGradient>
  </defs>
  <rect x="6" y="6" width="52" height="52" rx="16" fill="url(#g)"/>
  <path d="M22.5 38.4c-4.3-4.2-4.3-11 0-15.2l4.8-4.8a10.9 10.9 0 0 1 15.2 0 10.7 10.7 0 0 1 .8 14.4l-4.4-4.4a4.6 4.6 0 0 0-.8-5.7 4.8 4.8 0 0 0-6.5 0l-4.8 4.8a4.6 4.6 0 0 0 0 6.5 4.7 4.7 0 0 0 5.7.7l4.4 4.4a10.9 10.9 0 0 1-14.4-.7Z" fill="white" opacity=".96"/>
  <path d="M41.5 25.6c4.3 4.2 4.3 11 0 15.2l-4.8 4.8a10.9 10.9 0 0 1-15.2 0 10.7 10.7 0 0 1-.8-14.4l4.4 4.4a4.6 4.6 0 0 0 .8 5.7 4.8 4.8 0 0 0 6.5 0l4.8-4.8a4.6 4.6 0 0 0 0-6.5 4.7 4.7 0 0 0-5.7-.7l-4.4-4.4a10.9 10.9 0 0 1 14.4.7Z" fill="white" opacity=".72"/>
  <circle cx="47" cy="17" r="4" fill="#FDE68A"/>
</svg>
