<svg xmlns="http://www.w3.org/2000/svg" viewBox="0 0 98 96" role="img">
  <path fill="#000" fill-rule="evenodd" clip-rule="evenodd" d="M48.85 0C21.88 0 0 21.88 0 48.85c0 21.6 14.01 39.93 33.44 46.4 2.44.45 3.33-1.06 3.33-2.35 0-1.16-.04-4.22-.06-8.29-13.61 2.96-16.49-6.56-16.49-6.56-2.22-5.65-5.43-7.16-5.43-7.16-4.44-3.04.34-2.98.34-2.98 4.91.35 7.49 5.04 7.49 5.04 4.36 7.48 11.45 5.32 14.24 4.07.45-3.16 1.71-5.32 3.1-6.54-10.86-1.24-22.28-5.43-22.28-24.18 0-5.34 1.91-9.71 5.04-13.13-.5-1.24-2.18-6.22.48-12.96 0 0 4.11-1.32 13.44 5.02a46.83 46.83 0 0 1 24.48 0c9.32-6.34 13.43-5.02 13.43-5.02 2.67 6.74.99 11.72.49 12.96 3.14 3.42 5.03 7.79 5.03 13.13 0 18.8-11.44 22.93-22.33 24.14 1.76 1.51 3.32 4.49 3.32 9.05 0 6.54-.06 11.8-.06 13.41 0 1.31.88 2.83 3.36 2.35C83.86 88.76 97.7 70.45 97.7 48.85 97.7 21.88 75.82 0 48.85 0Z"/>
</svg>
